<svg width="132" height="32" viewBox="0 0 132 32" fill="none" xmlns="http://www.w3.org/2000/svg">
<path d="M24.2042 7.44189C23.916 7.15374 23.6279 6.8656 23.3397 6.57745C22.4753 5.65538 21.5532 4.73331 20.4006 4.15702C19.0752 3.46547 17.6344 3.63835 16.1937 3.63835C14.0038 3.63835 8.529 3.63835 5.30176 3.63835L7.49167 6.57745C11.4681 6.57745 17.6921 6.57745 20.5735 6.57745C21.7838 6.57745 22.8211 6.80797 23.8008 7.44189C23.9737 7.49952 24.1466 7.49952 24.2042 7.44189Z" fill="white" fill-opacity="0.7"/>
<path d="M26.6248 12.1675C26.3367 11.8793 26.0485 11.5912 25.7604 11.303C24.8959 10.381 23.9739 9.45889 22.8213 8.8826C21.4958 8.19105 20.0551 8.36394 18.6143 8.36394C16.7126 8.36394 12.1599 8.36394 8.93262 8.36394L11.1225 11.303C15.0413 11.303 20.4009 11.303 23.0518 11.303C24.262 11.303 25.2994 11.5335 26.2791 12.1675C26.3943 12.2251 26.5096 12.2251 26.6248 12.1675Z" fill="white" fill-opacity="0.7"/>
<path d="M29.3336 16.7778C29.0455 16.4897 28.7573 16.2015 28.4692 15.9134C27.6048 14.9913 26.6827 14.0692 25.5301 13.4929C24.2046 12.8014 22.7639 12.9743 21.3232 12.9743C19.5366 12.9743 15.6179 12.9743 12.4482 12.9743L14.6382 15.9134C18.4417 15.9134 23.2826 15.9134 25.703 15.9134C26.9132 15.9134 27.9505 16.1439 28.9302 16.7778C29.1031 16.8355 29.2184 16.8931 29.3336 16.7778Z" fill="white" fill-opacity="0.7"/>
<path d="M5.07129 24.5579C5.35944 24.846 5.64758 25.1342 5.93573 25.4223C6.80017 26.3444 7.72223 27.2664 8.87482 27.8427C10.2003 28.5343 11.641 28.3614 13.0818 28.3614H23.9737L21.7838 25.4223C17.8074 25.4223 11.5834 25.4223 8.70194 25.4223C7.49172 25.4223 6.45439 25.1918 5.47469 24.5579C5.3018 24.5002 5.18655 24.5002 5.07129 24.5579Z" fill="white" fill-opacity="0.7"/>
<path d="M2.65137 19.8323C2.93951 20.1204 3.22766 20.4086 3.51581 20.6967C4.38025 21.6188 5.30231 22.5409 6.4549 23.1172C7.78037 23.8087 9.22111 23.6358 10.6618 23.6358H20.3436L18.1537 20.6967C14.2349 20.6967 8.87533 20.6967 6.22439 20.6967C5.01417 20.6967 3.97684 20.4662 2.99714 19.8323C2.88188 19.7747 2.76663 19.7747 2.65137 19.8323Z" fill="white" fill-opacity="0.7"/>
<path d="M0 15.1643C0.288147 15.4525 0.576293 15.7406 0.86444 16.0288C1.72888 16.9508 2.65095 17.8729 3.80354 18.4492C5.12902 19.1407 6.56974 18.9679 8.01048 18.9679H16.8854L14.6955 16.0288C10.8919 16.0288 6.05108 16.0288 3.63065 16.0288C2.42043 16.0288 1.3831 15.7982 0.403404 15.1643C0.230516 15.1067 0.115259 15.1067 0 15.1643Z" fill="white" fill-opacity="0.7"/>
<path d="M35.9551 9.33887V22.6669H38.8857V17.1602H44.4671V14.8829H38.8857V11.8029H45.3257V9.33887H35.9551Z" fill="white" fill-opacity="0.7"/>
<path d="M52.6762 16.8055H48.3642C48.3766 16.6189 48.414 16.4073 48.4762 16.1709C48.5508 15.9344 48.6691 15.7104 48.8308 15.4989C49.0051 15.2873 49.2291 15.1131 49.5028 14.9762C49.7891 14.8269 50.1437 14.7522 50.5668 14.7522C51.214 14.7522 51.6931 14.9264 52.0042 15.2749C52.3277 15.6233 52.5517 16.1335 52.6762 16.8055ZM48.3642 18.4855H55.3268C55.3766 17.7389 55.3144 17.0233 55.1402 16.3389C54.966 15.6544 54.6797 15.0446 54.2815 14.5095C53.8957 13.9744 53.398 13.5513 52.7882 13.2402C52.1784 12.9166 51.4628 12.7549 50.6415 12.7549C49.9073 12.7549 49.2353 12.8855 48.6255 13.1469C48.0282 13.4082 47.5117 13.7691 47.0762 14.2295C46.6406 14.6775 46.3046 15.2126 46.0682 15.8349C45.8317 16.4571 45.7135 17.1291 45.7135 17.8509C45.7135 18.5975 45.8255 19.282 46.0495 19.9042C46.286 20.5264 46.6157 21.0615 47.0388 21.5095C47.462 21.9575 47.9784 22.306 48.5882 22.5549C49.198 22.7913 49.8824 22.9095 50.6415 22.9095C51.7366 22.9095 52.67 22.6606 53.4415 22.1629C54.2131 21.6651 54.7855 20.8375 55.1588 19.6802H52.8255C52.7384 19.9789 52.502 20.2651 52.1162 20.5389C51.7304 20.8002 51.27 20.9309 50.7348 20.9309C49.9882 20.9309 49.4157 20.738 49.0175 20.3522C48.6193 19.9664 48.4015 19.3442 48.3642 18.4855Z" fill="white" fill-opacity="0.7"/>
<path d="M56.2269 15.9842C56.2643 15.362 56.4198 14.8455 56.6936 14.4349C56.9674 14.0242 57.3158 13.6944 57.7389 13.4455C58.162 13.1966 58.6349 13.0224 59.1576 12.9229C59.6927 12.8109 60.2278 12.7549 60.7629 12.7549C61.2483 12.7549 61.7398 12.7922 62.2376 12.8669C62.7354 12.9291 63.1896 13.0598 63.6003 13.2589C64.0109 13.458 64.3469 13.738 64.6083 14.0989C64.8696 14.4473 65.0003 14.914 65.0003 15.4989V20.5202C65.0003 20.9558 65.0252 21.3726 65.0749 21.7709C65.1247 22.1691 65.2118 22.4678 65.3363 22.6669H62.6483C62.5985 22.5175 62.5549 22.3682 62.5176 22.2189C62.4927 22.0571 62.474 21.8953 62.4616 21.7335C62.0385 22.1691 61.5407 22.474 60.9683 22.6482C60.3958 22.8224 59.8109 22.9095 59.2136 22.9095C58.7532 22.9095 58.3238 22.8535 57.9256 22.7415C57.5274 22.6295 57.1789 22.4553 56.8803 22.2189C56.5816 21.9824 56.3452 21.6838 56.1709 21.3229C56.0092 20.962 55.9283 20.5326 55.9283 20.0349C55.9283 19.4873 56.0216 19.0393 56.2083 18.6909C56.4074 18.33 56.6563 18.0438 56.9549 17.8322C57.266 17.6206 57.6145 17.4651 58.0003 17.3655C58.3985 17.2535 58.7967 17.1664 59.1949 17.1042C59.5932 17.042 59.9852 16.9922 60.3709 16.9549C60.7567 16.9175 61.0989 16.8615 61.3976 16.7869C61.6963 16.7122 61.9327 16.6064 62.1069 16.4695C62.2812 16.3202 62.362 16.1086 62.3496 15.8349C62.3496 15.5486 62.2998 15.3246 62.2003 15.1629C62.1132 14.9886 61.9887 14.858 61.8269 14.7709C61.6776 14.6713 61.4972 14.6091 61.2856 14.5842C61.0865 14.5469 60.8687 14.5282 60.6323 14.5282C60.1096 14.5282 59.6989 14.6402 59.4003 14.8642C59.1016 15.0882 58.9274 15.4615 58.8776 15.9842H56.2269ZM62.3496 17.9442C62.2376 18.0438 62.0945 18.1246 61.9203 18.1869C61.7585 18.2366 61.578 18.2802 61.3789 18.3175C61.1923 18.3549 60.9932 18.386 60.7816 18.4109C60.57 18.4358 60.3585 18.4669 60.1469 18.5042C59.9478 18.5415 59.7487 18.5913 59.5496 18.6535C59.3629 18.7158 59.1949 18.8029 59.0456 18.9149C58.9087 19.0144 58.7967 19.1451 58.7096 19.3069C58.6225 19.4686 58.5789 19.674 58.5789 19.9229C58.5789 20.1593 58.6225 20.3584 58.7096 20.5202C58.7967 20.682 58.9149 20.8126 59.0643 20.9122C59.2136 20.9993 59.3878 21.0615 59.5869 21.0989C59.786 21.1362 59.9914 21.1549 60.2029 21.1549C60.7256 21.1549 61.13 21.0678 61.4163 20.8935C61.7025 20.7193 61.914 20.514 62.0509 20.2775C62.1878 20.0286 62.2687 19.7798 62.2936 19.5309C62.3309 19.282 62.3496 19.0829 62.3496 18.9335V17.9442Z" fill="white" fill-opacity="0.7"/>
<path d="M69.8577 13.0162V10.1229H67.207V13.0162H65.6017V14.7895H67.207V20.4829C67.207 20.9682 67.2879 21.3602 67.4497 21.6589C67.6115 21.9575 67.8292 22.1878 68.103 22.3495C68.3892 22.5113 68.7128 22.6171 69.0737 22.6669C69.447 22.7291 69.839 22.7602 70.2497 22.7602C70.511 22.7602 70.7786 22.754 71.0524 22.7415C71.3261 22.7291 71.575 22.7042 71.799 22.6669V20.6135C71.6746 20.6384 71.5439 20.6571 71.407 20.6695C71.2701 20.682 71.127 20.6882 70.9777 20.6882C70.5297 20.6882 70.231 20.6135 70.0817 20.4642C69.9324 20.3149 69.8577 20.0162 69.8577 19.5682V14.7895H71.799V13.0162H69.8577Z" fill="white" fill-opacity="0.7"/>
<path d="M72.5002 9.33887V22.6669H75.1508V17.6082C75.1508 16.6251 75.3126 15.922 75.6362 15.4989C75.9597 15.0633 76.4824 14.8455 77.2042 14.8455C77.8389 14.8455 78.2806 15.0446 78.5295 15.4429C78.7784 15.8286 78.9028 16.4198 78.9028 17.2162V22.6669H81.5535V16.7309C81.5535 16.1335 81.4975 15.5922 81.3855 15.1069C81.286 14.6091 81.1055 14.1922 80.8442 13.8562C80.5829 13.5078 80.222 13.2402 79.7615 13.0535C79.3135 12.8544 78.7349 12.7549 78.0255 12.7549C77.5277 12.7549 77.0175 12.8855 76.4949 13.1469C75.9722 13.3958 75.5429 13.8002 75.2068 14.3602H75.1508V9.33887H72.5002Z" fill="white" fill-opacity="0.7"/>
<path d="M89.5013 16.8055H85.1893C85.2017 16.6189 85.2391 16.4073 85.3013 16.1709C85.376 15.9344 85.4942 15.7104 85.656 15.4989C85.8302 15.2873 86.0542 15.1131 86.328 14.9762C86.6142 14.8269 86.9688 14.7522 87.392 14.7522C88.0391 14.7522 88.5182 14.9264 88.8293 15.2749C89.1528 15.6233 89.3768 16.1335 89.5013 16.8055ZM85.1893 18.4855H92.152C92.2017 17.7389 92.1395 17.0233 91.9653 16.3389C91.7911 15.6544 91.5048 15.0446 91.1066 14.5095C90.7208 13.9744 90.2231 13.5513 89.6133 13.2402C89.0035 12.9166 88.288 12.7549 87.4666 12.7549C86.7324 12.7549 86.0604 12.8855 85.4506 13.1469C84.8533 13.4082 84.3368 13.7691 83.9013 14.2295C83.4657 14.6775 83.1297 15.2126 82.8933 15.8349C82.6568 16.4571 82.5386 17.1291 82.5386 17.8509C82.5386 18.5975 82.6506 19.282 82.8746 19.9042C83.1111 20.5264 83.4408 21.0615 83.864 21.5095C84.2871 21.9575 84.8035 22.306 85.4133 22.5549C86.0231 22.7913 86.7075 22.9095 87.4666 22.9095C88.5617 22.9095 89.4951 22.6606 90.2666 22.1629C91.0382 21.6651 91.6106 20.8375 91.984 19.6802H89.6506C89.5635 19.9789 89.3271 20.2651 88.9413 20.5389C88.5555 20.8002 88.0951 20.9309 87.56 20.9309C86.8133 20.9309 86.2408 20.738 85.8426 20.3522C85.4444 19.9664 85.2266 19.3442 85.1893 18.4855Z" fill="white" fill-opacity="0.7"/>
<path d="M93.164 13.0162V22.6669H95.8147V18.3175C95.8147 17.882 95.8583 17.4775 95.9454 17.1042C96.0325 16.7309 96.1756 16.4073 96.3747 16.1335C96.5863 15.8473 96.86 15.6233 97.196 15.4615C97.532 15.2998 97.9427 15.2189 98.428 15.2189C98.5898 15.2189 98.7578 15.2313 98.932 15.2562C99.1063 15.2686 99.2556 15.2873 99.38 15.3122V12.8482C99.1685 12.786 98.9756 12.7549 98.8014 12.7549C98.4654 12.7549 98.1418 12.8046 97.8307 12.9042C97.5196 13.0038 97.2271 13.1469 96.9534 13.3335C96.6796 13.5078 96.4369 13.7255 96.2254 13.9869C96.0138 14.2358 95.8458 14.5095 95.7214 14.8082H95.684V13.0162H93.164Z" fill="white" fill-opacity="0.7"/>
<path d="M103.07 20.2029V11.8029H105.161C105.882 11.8029 106.486 11.9086 106.971 12.1202C107.469 12.3193 107.867 12.6118 108.166 12.9975C108.465 13.3833 108.676 13.85 108.801 14.3975C108.937 14.9326 109.006 15.5362 109.006 16.2082C109.006 16.9424 108.913 17.5646 108.726 18.0749C108.539 18.5851 108.29 19.002 107.979 19.3255C107.668 19.6366 107.313 19.8606 106.915 19.9975C106.517 20.1344 106.106 20.2029 105.683 20.2029H103.07ZM100.139 9.33887V22.6669H105.889C106.909 22.6669 107.793 22.4989 108.539 22.1629C109.298 21.8144 109.927 21.3415 110.425 20.7442C110.935 20.1469 111.314 19.4375 111.563 18.6162C111.812 17.7949 111.937 16.8989 111.937 15.9282C111.937 14.8206 111.781 13.8562 111.47 13.0349C111.171 12.2135 110.748 11.5291 110.201 10.9815C109.665 10.434 109.025 10.0233 108.278 9.74953C107.544 9.47576 106.747 9.33887 105.889 9.33887H100.139Z" fill="white" fill-opacity="0.7"/>
<path d="M119.631 16.8055H115.319C115.332 16.6189 115.369 16.4073 115.431 16.1709C115.506 15.9344 115.624 15.7104 115.786 15.4989C115.96 15.2873 116.184 15.1131 116.458 14.9762C116.744 14.8269 117.099 14.7522 117.522 14.7522C118.169 14.7522 118.648 14.9264 118.959 15.2749C119.283 15.6233 119.507 16.1335 119.631 16.8055ZM115.319 18.4855H122.282C122.332 17.7389 122.269 17.0233 122.095 16.3389C121.921 15.6544 121.635 15.0446 121.237 14.5095C120.851 13.9744 120.353 13.5513 119.743 13.2402C119.133 12.9166 118.418 12.7549 117.597 12.7549C116.862 12.7549 116.19 12.8855 115.581 13.1469C114.983 13.4082 114.467 13.7691 114.031 14.2295C113.596 14.6775 113.26 15.2126 113.023 15.8349C112.787 16.4571 112.669 17.1291 112.669 17.8509C112.669 18.5975 112.781 19.282 113.005 19.9042C113.241 20.5264 113.571 21.0615 113.994 21.5095C114.417 21.9575 114.933 22.306 115.543 22.5549C116.153 22.7913 116.837 22.9095 117.597 22.9095C118.692 22.9095 119.625 22.6606 120.397 22.1629C121.168 21.6651 121.741 20.8375 122.114 19.6802H119.781C119.693 19.9789 119.457 20.2651 119.071 20.5389C118.685 20.8002 118.225 20.9309 117.69 20.9309C116.943 20.9309 116.371 20.738 115.973 20.3522C115.574 19.9664 115.357 19.3442 115.319 18.4855Z" fill="white" fill-opacity="0.7"/>
<path d="M128.633 22.6669L131.899 13.0162H129.267L127.233 19.6055H127.195L125.161 13.0162H122.379L125.683 22.6669H128.633Z" fill="white" fill-opacity="0.7"/>
</svg>
