<svg width="113" height="32" viewBox="0 0 113 32" fill="none" xmlns="http://www.w3.org/2000/svg">
<path fill-rule="evenodd" clip-rule="evenodd" d="M14.6235 30.6663C22.6999 30.6663 29.2471 24.0998 29.2471 15.9997C29.2471 7.89951 22.6999 1.33301 14.6235 1.33301C6.54716 1.33301 0 7.89951 0 15.9997C0 24.0998 6.54716 30.6663 14.6235 30.6663ZM19.1856 8.16536C19.4076 7.37425 18.6422 6.90644 17.9431 7.40596L8.18414 14.3787C7.42598 14.9204 7.54524 15.9997 8.36328 15.9997H10.9331V15.9797H15.9415L11.8606 17.4239L10.0615 23.834C9.83945 24.6251 10.6048 25.0929 11.304 24.5934L21.0629 17.6207C21.8211 17.079 21.7018 15.9997 20.8838 15.9997H16.9868L19.1856 8.16536Z" fill="white" fill-opacity="0.7"/>
<path d="M36.8115 22.6062V20.2862H38.6461V10.9262H36.8115V8.60617H43.9903C44.8412 8.60617 45.579 8.75284 46.2038 9.04617C46.8419 9.32617 47.3338 9.73284 47.6795 10.2662C48.0384 10.7862 48.2179 11.4128 48.2179 12.1462V12.3462C48.2179 12.9862 48.0982 13.5128 47.8589 13.9262C47.6196 14.3262 47.3338 14.6395 47.0015 14.8662C46.6824 15.0795 46.3766 15.2328 46.0842 15.3262V15.6862C46.3766 15.7662 46.6957 15.9195 47.0413 16.1462C47.387 16.3595 47.6795 16.6728 47.9188 17.0862C48.1713 17.4995 48.2976 18.0395 48.2976 18.7062V18.9062C48.2976 19.6795 48.1182 20.3462 47.7592 20.9062C47.4003 21.4528 46.9018 21.8728 46.2636 22.1662C45.6388 22.4595 44.9076 22.6062 44.0701 22.6062H36.8115ZM41.2783 20.2062H43.7511C44.3227 20.2062 44.7813 20.0662 45.127 19.7862C45.4859 19.5062 45.6654 19.1062 45.6654 18.5862V18.3862C45.6654 17.8662 45.4926 17.4662 45.1469 17.1862C44.8013 16.9062 44.336 16.7662 43.7511 16.7662H41.2783V20.2062ZM41.2783 14.3662H43.7112C44.2562 14.3662 44.7016 14.2262 45.0472 13.9462C45.4062 13.6662 45.5856 13.2795 45.5856 12.7862V12.5862C45.5856 12.0795 45.4128 11.6928 45.0672 11.4262C44.7215 11.1462 44.2695 11.0062 43.7112 11.0062H41.2783V14.3662Z" fill="white" fill-opacity="0.7"/>
<path d="M54.2414 22.8862C53.2576 22.8862 52.3735 22.6862 51.5892 22.2862C50.8048 21.8862 50.1867 21.3062 49.7347 20.5462C49.2827 19.7862 49.0567 18.8728 49.0567 17.8062V17.4862C49.0567 16.4195 49.2827 15.5062 49.7347 14.7462C50.1867 13.9862 50.8048 13.4062 51.5892 13.0062C52.3735 12.6062 53.2576 12.4062 54.2414 12.4062C55.2251 12.4062 56.1092 12.6062 56.8935 13.0062C57.6779 13.4062 58.2961 13.9862 58.7481 14.7462C59.2001 15.5062 59.4261 16.4195 59.4261 17.4862V17.8062C59.4261 18.8728 59.2001 19.7862 58.7481 20.5462C58.2961 21.3062 57.6779 21.8862 56.8935 22.2862C56.1092 22.6862 55.2251 22.8862 54.2414 22.8862ZM54.2414 20.6462C55.0124 20.6462 55.6505 20.3995 56.1557 19.9062C56.6609 19.3995 56.9135 18.6795 56.9135 17.7462V17.5462C56.9135 16.6128 56.6609 15.8995 56.1557 15.4062C55.6638 14.8995 55.0257 14.6462 54.2414 14.6462C53.4703 14.6462 52.8322 14.8995 52.327 15.4062C51.8218 15.8995 51.5692 16.6128 51.5692 17.5462V17.7462C51.5692 18.6795 51.8218 19.3995 52.327 19.9062C52.8322 20.3995 53.4703 20.6462 54.2414 20.6462Z" fill="white" fill-opacity="0.7"/>
<path d="M60.7483 22.6062V8.60617H63.2608V22.6062H60.7483Z" fill="white" fill-opacity="0.7"/>
<path d="M68.8369 22.6062C68.1855 22.6062 67.6537 22.4062 67.2416 22.0062C66.8428 21.5928 66.6434 21.0462 66.6434 20.3662V14.7662H64.1707V12.6862H66.6434V9.60617H69.156V12.6862H71.868V14.7662H69.156V19.9262C69.156 20.3262 69.3421 20.5262 69.7143 20.5262H71.6287V22.6062H68.8369Z" fill="white" fill-opacity="0.7"/>
<path d="M77.2532 22.8862C75.9636 22.8862 74.9068 22.6062 74.0825 22.0462C73.2583 21.4862 72.7598 20.6862 72.5869 19.6462L74.9001 19.0462C74.9932 19.5128 75.146 19.8795 75.3588 20.1462C75.5848 20.4128 75.8573 20.6062 76.1763 20.7262C76.5087 20.8328 76.8676 20.8862 77.2532 20.8862C77.8381 20.8862 78.2702 20.7862 78.5493 20.5862C78.8285 20.3728 78.9681 20.1128 78.9681 19.8062C78.9681 19.4995 78.8352 19.2662 78.5693 19.1062C78.3034 18.9328 77.878 18.7928 77.293 18.6862L76.7347 18.5862C76.0434 18.4528 75.4119 18.2728 74.8403 18.0462C74.2686 17.8062 73.81 17.4795 73.4643 17.0662C73.1187 16.6528 72.9459 16.1195 72.9459 15.4662C72.9459 14.4795 73.3048 13.7262 74.0227 13.2062C74.7406 12.6728 75.6845 12.4062 76.8543 12.4062C77.9578 12.4062 78.875 12.6528 79.6062 13.1462C80.3374 13.6395 80.816 14.2862 81.042 15.0862L78.7089 15.8062C78.6025 15.2995 78.3832 14.9395 78.0508 14.7262C77.7318 14.5128 77.3329 14.4062 76.8543 14.4062C76.3758 14.4062 76.0102 14.4928 75.7576 14.6662C75.505 14.8262 75.3787 15.0528 75.3787 15.3462C75.3787 15.6662 75.5116 15.9062 75.7775 16.0662C76.0434 16.2128 76.4023 16.3262 76.8543 16.4062L77.4127 16.5062C78.1572 16.6395 78.8285 16.8195 79.4268 17.0462C80.0383 17.2595 80.5169 17.5728 80.8625 17.9862C81.2215 18.3862 81.4009 18.9328 81.4009 19.6262C81.4009 20.6662 81.022 21.4728 80.2643 22.0462C79.5198 22.6062 78.5161 22.8862 77.2532 22.8862Z" fill="white" fill-opacity="0.7"/>
<path d="M82.6057 22.6062V8.60617H85.1182V13.9062H85.4772C85.5835 13.6928 85.7497 13.4795 85.9757 13.2662C86.2017 13.0528 86.5008 12.8795 86.8731 12.7462C87.2586 12.5995 87.7438 12.5262 88.3288 12.5262C89.0998 12.5262 89.7712 12.7062 90.3428 13.0662C90.9278 13.4128 91.3798 13.8995 91.6988 14.5262C92.0179 15.1395 92.1774 15.8595 92.1774 16.6862V22.6062H89.6648V16.8862C89.6648 16.1395 89.4787 15.5795 89.1065 15.2062C88.7475 14.8328 88.2291 14.6462 87.5511 14.6462C86.78 14.6462 86.1818 14.9062 85.7564 15.4262C85.331 15.9328 85.1182 16.6462 85.1182 17.5662V22.6062H82.6057Z" fill="white" fill-opacity="0.7"/>
<path d="M93.8966 22.6062V12.6862H96.4092V22.6062H93.8966ZM95.1529 11.5262C94.7009 11.5262 94.3153 11.3795 93.9963 11.0862C93.6905 10.7928 93.5376 10.4062 93.5376 9.92617C93.5376 9.44617 93.6905 9.05951 93.9963 8.76617C94.3153 8.47284 94.7009 8.32617 95.1529 8.32617C95.6182 8.32617 96.0037 8.47284 96.3095 8.76617C96.6152 9.05951 96.7681 9.44617 96.7681 9.92617C96.7681 10.4062 96.6152 10.7928 96.3095 11.0862C96.0037 11.3795 95.6182 11.5262 95.1529 11.5262Z" fill="white" fill-opacity="0.7"/>
<path d="M99.8316 22.6062V14.7662H97.319V12.6862H99.8316V10.8462C99.8316 10.1662 100.031 9.62617 100.43 9.22617C100.842 8.81284 101.374 8.60617 102.025 8.60617H104.617V10.6862H102.903C102.53 10.6862 102.344 10.8862 102.344 11.2862V12.6862H104.937V14.7662H102.344V22.6062H99.8316Z" fill="white" fill-opacity="0.7"/>
<path d="M109.479 22.6062C108.827 22.6062 108.296 22.4062 107.883 22.0062C107.485 21.5928 107.285 21.0462 107.285 20.3662V14.7662H104.812V12.6862H107.285V9.60617H109.798V12.6862H112.51V14.7662H109.798V19.9262C109.798 20.3262 109.984 20.5262 110.356 20.5262H112.271V22.6062H109.479Z" fill="white" fill-opacity="0.7"/>
</svg>
