<svg width="111" height="32" viewBox="0 0 111 32" fill="none" xmlns="http://www.w3.org/2000/svg">
<path fill-rule="evenodd" clip-rule="evenodd" d="M13.1375 2.29803C12.8019 2.22878 12.4556 2.22878 12.1199 2.29803C11.7319 2.37807 11.3851 2.57292 11.1094 2.72782L11.0342 2.76993L1.68928 7.97714C1.66345 7.99154 1.63682 8.00625 1.60954 8.02132C1.31767 8.18257 0.950669 8.38531 0.668837 8.69206C0.425173 8.95726 0.240774 9.27159 0.127973 9.61403C-0.00249906 10.0101 -0.000972581 10.4303 0.00024138 10.7646C0.000354861 10.7958 0.000465549 10.8263 0.000465549 10.8559V21.1372C0.000465549 21.1669 0.000354861 21.1973 0.00024138 21.2286C-0.000972581 21.5628 -0.00249906 21.983 0.127973 22.3791C0.240775 22.7216 0.425175 23.0359 0.668838 23.3011C0.95067 23.6078 1.31767 23.8106 1.60955 23.9718C1.63682 23.9869 1.66345 24.0016 1.68928 24.016L11.0342 29.2232L11.1094 29.2653C11.3851 29.4202 11.7319 29.6151 12.1199 29.6951C12.4556 29.7644 12.8019 29.7644 13.1375 29.6951C13.5256 29.6151 13.8724 29.4202 14.1481 29.2653L14.2233 29.2232L23.5682 24.016C23.5796 24.0096 23.5912 24.0032 23.6029 23.9967C23.6177 23.9885 23.6327 23.9802 23.6479 23.9718C23.9398 23.8106 24.3068 23.6078 24.5886 23.3011C24.8323 23.0359 25.0167 22.7215 25.1295 22.3791C25.26 21.983 25.2585 21.5628 25.2572 21.2286C25.2571 21.1973 25.257 21.1669 25.257 21.1372V10.8559C25.257 10.8263 25.2571 10.7958 25.2572 10.7646C25.2585 10.4303 25.26 10.0101 25.1295 9.61402C25.0167 9.27159 24.8323 8.95726 24.5886 8.69206C24.3068 8.38531 23.9398 8.18256 23.6479 8.02131L23.6469 8.02074C23.62 8.00587 23.5937 7.99135 23.5682 7.97714L14.2233 2.76993L14.1481 2.72781C13.8724 2.57291 13.5256 2.37807 13.1375 2.29803ZM12.2608 4.98438C12.4521 4.87774 12.5498 4.82386 12.6227 4.7886L12.6287 4.7857L12.6348 4.7886C12.7077 4.82386 12.8053 4.87774 12.9967 4.98437L21.3938 9.66344L12.6287 14.5476L3.86363 9.66347L12.2608 4.98438ZM2.52612 11.8161L11.3659 16.7418L11.3659 26.5101L2.91585 21.8016C2.71386 21.689 2.61073 21.6309 2.53837 21.5847L2.53226 21.5808L2.53181 21.5735C2.52665 21.4876 2.52612 21.369 2.52612 21.1372V11.8161Z" fill="white" fill-opacity="0.7"/>
<path d="M36.7504 20.2305H40.7704V22.6065H33.6816V9.97048H36.7504V20.2305Z" fill="white" fill-opacity="0.7"/>
<path d="M43.598 11.5185C43.0596 11.5185 42.6169 11.3625 42.27 11.0505C41.935 10.7265 41.7675 10.3305 41.7675 9.86248C41.7675 9.38248 41.935 8.98648 42.27 8.67448C42.6169 8.35048 43.0596 8.18848 43.598 8.18848C44.1244 8.18848 44.5551 8.35048 44.8901 8.67448C45.2371 8.98648 45.4105 9.38248 45.4105 9.86248C45.4105 10.3305 45.2371 10.7265 44.8901 11.0505C44.5551 11.3625 44.1244 11.5185 43.598 11.5185ZM45.1234 12.5625V22.6065H42.0546V12.5625H45.1234Z" fill="white" fill-opacity="0.7"/>
<path d="M50.9724 12.4185C51.6783 12.4185 52.2945 12.5625 52.8209 12.8505C53.3593 13.1385 53.772 13.5165 54.0592 13.9845V12.5625H57.128V22.5885C57.128 23.5125 56.9425 24.3465 56.5716 25.0905C56.2127 25.8465 55.6564 26.4465 54.9026 26.8905C54.1609 27.3345 53.2336 27.5565 52.121 27.5565C50.6374 27.5565 49.4351 27.2025 48.5138 26.4945C47.5926 25.7985 47.0662 24.8505 46.9346 23.6505H49.9675C50.0632 24.0345 50.2905 24.3345 50.6494 24.5505C51.0083 24.7785 51.451 24.8925 51.9774 24.8925C52.6115 24.8925 53.114 24.7065 53.4849 24.3345C53.8677 23.9745 54.0592 23.3925 54.0592 22.5885V21.1665C53.7601 21.6345 53.3473 22.0185 52.8209 22.3185C52.2945 22.6065 51.6783 22.7505 50.9724 22.7505C50.1469 22.7505 49.3992 22.5405 48.7292 22.1205C48.0592 21.6885 47.5268 21.0825 47.132 20.3025C46.7491 19.5105 46.5577 18.5985 46.5577 17.5665C46.5577 16.5345 46.7491 15.6285 47.132 14.8485C47.5268 14.0685 48.0592 13.4685 48.7292 13.0485C49.3992 12.6285 50.1469 12.4185 50.9724 12.4185ZM54.0592 17.5845C54.0592 16.8165 53.8438 16.2105 53.4131 15.7665C52.9944 15.3225 52.4799 15.1005 51.8697 15.1005C51.2596 15.1005 50.7391 15.3225 50.3084 15.7665C49.8897 16.1985 49.6803 16.7985 49.6803 17.5665C49.6803 18.3345 49.8897 18.9465 50.3084 19.4025C50.7391 19.8465 51.2596 20.0685 51.8697 20.0685C52.4799 20.0685 52.9944 19.8465 53.4131 19.4025C53.8438 18.9585 54.0592 18.3525 54.0592 17.5845Z" fill="white" fill-opacity="0.7"/>
<path d="M65.3241 12.4545C66.4727 12.4545 67.3939 12.8385 68.0878 13.6065C68.7817 14.3625 69.1287 15.4065 69.1287 16.7385V22.6065H66.0779V17.1525C66.0779 16.4805 65.9044 15.9585 65.5574 15.5865C65.2105 15.2145 64.7439 15.0285 64.1576 15.0285C63.5714 15.0285 63.1048 15.2145 62.7578 15.5865C62.4109 15.9585 62.2374 16.4805 62.2374 17.1525V22.6065H59.1686V9.28648H62.2374V13.9125C62.5485 13.4685 62.9732 13.1145 63.5116 12.8505C64.05 12.5865 64.6541 12.4545 65.3241 12.4545Z" fill="white" fill-opacity="0.7"/>
<path d="M76.663 19.9965V22.6065H75.1017C73.989 22.6065 73.1216 22.3365 72.4995 21.7965C71.8774 21.2445 71.5663 20.3505 71.5663 19.1145V15.1185H70.346V12.5625H71.5663V10.1145H74.6351V12.5625H76.645V15.1185H74.6351V19.1505C74.6351 19.4505 74.7069 19.6665 74.8504 19.7985C74.994 19.9305 75.2333 19.9965 75.5683 19.9965H76.663Z" fill="white" fill-opacity="0.7"/>
<path d="M81.2617 13.9845C81.5488 13.5165 81.9616 13.1385 82.5 12.8505C83.0383 12.5625 83.6545 12.4185 84.3484 12.4185C85.1739 12.4185 85.9217 12.6285 86.5917 13.0485C87.2617 13.4685 87.7881 14.0685 88.1709 14.8485C88.5657 15.6285 88.7632 16.5345 88.7632 17.5665C88.7632 18.5985 88.5657 19.5105 88.1709 20.3025C87.7881 21.0825 87.2617 21.6885 86.5917 22.1205C85.9217 22.5405 85.1739 22.7505 84.3484 22.7505C83.6425 22.7505 83.0264 22.6125 82.5 22.3365C81.9735 22.0485 81.5608 21.6705 81.2617 21.2025V22.6065H78.1929V9.28648H81.2617V13.9845ZM85.6405 17.5665C85.6405 16.7985 85.4252 16.1985 84.9945 15.7665C84.5757 15.3225 84.0553 15.1005 83.4332 15.1005C82.823 15.1005 82.3026 15.3225 81.8718 15.7665C81.4531 16.2105 81.2437 16.8165 81.2437 17.5845C81.2437 18.3525 81.4531 18.9585 81.8718 19.4025C82.3026 19.8465 82.823 20.0685 83.4332 20.0685C84.0433 20.0685 84.5638 19.8465 84.9945 19.4025C85.4252 18.9465 85.6405 18.3345 85.6405 17.5665Z" fill="white" fill-opacity="0.7"/>
<path d="M94.752 22.7505C93.7709 22.7505 92.8856 22.5405 92.0959 22.1205C91.3183 21.7005 90.7021 21.1005 90.2475 20.3205C89.8048 19.5405 89.5835 18.6285 89.5835 17.5845C89.5835 16.5525 89.8108 15.6465 90.2654 14.8665C90.7201 14.0745 91.3422 13.4685 92.1318 13.0485C92.9215 12.6285 93.8068 12.4185 94.7879 12.4185C95.7689 12.4185 96.6543 12.6285 97.4439 13.0485C98.2335 13.4685 98.8556 14.0745 99.3103 14.8665C99.7649 15.6465 99.9922 16.5525 99.9922 17.5845C99.9922 18.6165 99.7589 19.5285 99.2923 20.3205C98.8377 21.1005 98.2096 21.7005 97.408 22.1205C96.6184 22.5405 95.733 22.7505 94.752 22.7505ZM94.752 20.0865C95.3382 20.0865 95.8347 19.8705 96.2415 19.4385C96.6602 19.0065 96.8696 18.3885 96.8696 17.5845C96.8696 16.7805 96.6662 16.1625 96.2594 15.7305C95.8646 15.2985 95.3741 15.0825 94.7879 15.0825C94.1897 15.0825 93.6931 15.2985 93.2983 15.7305C92.9035 16.1505 92.7061 16.7685 92.7061 17.5845C92.7061 18.3885 92.8975 19.0065 93.2804 19.4385C93.6752 19.8705 94.1657 20.0865 94.752 20.0865Z" fill="white" fill-opacity="0.7"/>
<path d="M107.363 22.6065L105.443 19.8165L103.828 22.6065H100.508L103.81 17.4765L100.418 12.5625H103.864L105.784 15.3345L107.399 12.5625H110.719L107.363 17.6205L110.809 22.6065H107.363Z" fill="white" fill-opacity="0.7"/>
</svg>
